<?xml version="1.0" standalone="no"?>
<!DOCTYPE svg PUBLIC "-//W3C//DTD SVG 20010904//EN"
 "http://www.w3.org/TR/2001/REC-SVG-20010904/DTD/svg10.dtd">
<svg version="1.0" xmlns="http://www.w3.org/2000/svg"
 width="500.000000pt" height="500.000000pt" viewBox="0 0 500.000000 500.000000"
 preserveAspectRatio="xMidYMid meet">
<metadata>
Created by potrace 1.11, written by Peter Selinger 2001-2013
</metadata>
<g transform="translate(0.000000,500.000000) scale(0.100000,-0.100000)"
fill="#000000" stroke="none">
<path d="M2457 4994 c-1 -1 -54 -4 -117 -8 -468 -27 -912 -186 -1305 -470
-214 -154 -433 -378 -587 -601 -212 -306 -364 -691 -413 -1045 -3 -25 -8 -56
-10 -70 -32 -225 -21 -519 31 -780 154 -773 658 -1421 1374 -1767 187 -90 478
-182 661 -207 25 -4 57 -8 70 -11 161 -25 489 -26 669 0 14 2 48 6 75 10 81
12 313 71 410 106 549 195 1004 563 1314 1064 49 80 157 302 195 403 53 137
103 320 125 457 6 33 13 74 15 90 30 175 26 550 -9 735 -3 14 -7 41 -10 60
-45 275 -187 631 -356 890 -312 478 -758 827 -1284 1007 -103 35 -300 87 -370
98 -22 3 -69 10 -105 15 -73 11 -365 30 -373 24z m258 -128 c39 -4 84 -9 100
-11 58 -9 90 -15 115 -20 14 -2 36 -6 50 -9 78 -13 275 -72 379 -113 82 -32
248 -112 319 -152 100 -58 293 -194 343 -241 8 -8 46 -42 84 -75 92 -81 216
-220 312 -350 234 -319 390 -719 439 -1130 12 -104 12 -442 0 -525 -2 -19 -7
-53 -10 -75 -8 -56 -35 -192 -47 -240 -6 -22 -12 -47 -14 -56 -2 -9 -17 -57
-34 -108 -267 -796 -929 -1395 -1741 -1574 -63 -14 -140 -29 -170 -32 -30 -4
-66 -9 -80 -12 -52 -9 -428 -11 -495 -3 -38 5 -90 12 -115 15 -25 3 -85 14
-135 25 -720 151 -1338 634 -1654 1292 -126 264 -198 523 -227 818 -13 139 -7
438 11 524 2 12 7 41 10 66 4 25 8 54 10 66 12 82 76 301 122 419 214 544 629
998 1148 1258 202 100 432 179 622 211 91 16 167 26 233 32 41 3 76 7 77 8 5
4 284 -2 348 -8z"/>
<path d="M2255 4625 c-157 -21 -172 -24 -257 -45 -155 -39 -210 -60 -203 -79
24 -59 206 -556 252 -686 8 -22 48 -130 88 -240 40 -110 125 -342 188 -515 63
-173 120 -328 126 -344 11 -28 17 -16 91 200 43 126 126 369 185 539 59 171
154 447 212 615 57 168 116 337 130 375 34 96 34 106 -2 117 -50 14 -207 47
-260 54 -27 4 -59 9 -70 11 -47 10 -397 9 -480 -2z"/>
<path d="M3435 4403 c4 -10 42 -115 85 -233 43 -118 112 -307 153 -420 142
-389 240 -655 277 -760 21 -58 63 -172 93 -255 269 -734 362 -988 379 -1037
19 -57 38 -76 38 -40 0 10 4 22 9 28 20 22 106 301 125 409 3 17 8 39 10 50 2
12 7 48 11 80 4 33 9 74 11 90 5 36 5 335 0 385 -2 19 -6 53 -10 75 -3 22 -9
58 -12 80 -9 64 -42 202 -74 302 -118 377 -360 735 -675 994 -101 84 -218 163
-327 222 -94 52 -103 55 -93 30z"/>
<path d="M1347 4302 c-317 -196 -615 -535 -782 -887 -35 -75 -118 -298 -130
-347 -45 -201 -52 -240 -65 -373 -7 -78 -4 -385 4 -435 3 -14 8 -47 11 -75 11
-86 55 -266 92 -375 32 -94 136 -330 146 -330 2 0 0 24 -4 53 -9 69 -9 266 1
342 5 33 11 82 15 108 10 81 61 265 113 412 60 168 239 682 467 1345 92 267
169 492 172 500 13 34 40 110 39 110 -1 0 -36 -22 -79 -48z"/>
<path d="M2792 3111 l-233 -699 19 -53 c11 -30 63 -173 116 -319 54 -146 120
-327 148 -402 47 -129 52 -138 77 -139 14 0 35 -2 46 -3 11 -2 54 -6 95 -10
49 -4 84 -13 100 -25 42 -31 43 -105 2 -138 -16 -13 -100 -12 -357 3 -74 4
-459 5 -535 0 -270 -15 -321 -17 -339 -11 -12 3 -28 20 -37 37 -22 43 -12 89
25 111 29 17 54 21 205 32 38 3 71 7 74 10 4 4 -373 1141 -398 1200 -5 11 -86
252 -180 535 -95 283 -177 524 -183 534 -8 16 -14 5 -34 -65 -13 -46 -37 -128
-54 -181 -16 -53 -32 -105 -34 -115 -2 -10 -49 -166 -105 -347 -55 -181 -102
-339 -105 -350 -2 -12 -13 -64 -25 -116 -29 -130 -31 -273 -5 -413 23 -120 88
-267 206 -464 88 -146 121 -214 142 -295 65 -249 -89 -485 -326 -500 l-38 -2
38 -36 c235 -220 629 -413 993 -484 138 -27 154 -28 380 -31 211 -3 267 1 430
29 89 16 282 71 355 101 318 130 538 275 755 494 111 112 277 317 265 329 -5
5 -294 4 -410 -2 -33 -2 -119 -7 -191 -11 -148 -8 -166 -3 -183 48 -24 71 19
115 120 123 35 3 82 6 104 8 22 2 52 4 66 5 l27 1 -147 438 c-81 240 -255 757
-386 1147 -131 391 -241 713 -244 717 -4 4 -111 -307 -239 -691z"/>
</g>
</svg>
